<svg width="19" height="17" viewBox="0 0 19 17" fill="none" xmlns="http://www.w3.org/2000/svg">
<path d="M12.635 9.50059L18.5129 3.62269C19.1623 2.97325 19.1623 1.92033 18.5129 1.2719L17.7293 0.488303C17.0796 -0.161347 16.0267 -0.161347 15.3783 0.488303L9.50059 6.366L3.62269 0.487085C2.97325 -0.162362 1.92033 -0.162362 1.2719 0.487085L0.487085 1.27068C-0.162362 1.92033 -0.162362 2.97325 0.487085 3.62168L6.366 9.50059L0.488303 15.3783C-0.161347 16.0279 -0.161347 17.0808 0.488303 17.7293L1.2719 18.5129C1.92135 19.1623 2.97426 19.1623 3.62269 18.5129L9.50059 12.635L15.3783 18.5129C16.0279 19.1623 17.0808 19.1623 17.7293 18.5129L18.5129 17.7293C19.1623 17.0796 19.1623 16.0267 18.5129 15.3783L12.635 9.50059Z" fill="black"/>
</svg>
