<svg width="73" height="47" fill="none" xmlns="http://www.w3.org/2000/svg"><path d="M11 14H5v12h6V14z" fill="#F4C602"/><path fill-rule="evenodd" clip-rule="evenodd" d="M59 11v19h-5.556v-6.08H51v-7.347h2.444V11H59zM42.984 4.732L50 9.447v18.86l-6.453-4.11-.034-10.397-3.773-2.54-3.755-2.538-3.773 2.539-3.773 2.539v3.402h13.674v6.978H28.44l-.017.017h.069l-6.539 4.11v-4.11h-3.977V30H12V11.865h5.975v5.32h3.977V9.447l7.017-4.715L35.985 0l6.999 4.732z" fill="#F4C602"/><path d="M67 14h-7v12h7V14z" fill="#F4C602"/><path d="M5.995 37c-.292 0-.547.076-.766.227-.219.152-.45.43-.669.859L.05 46.672c-.049.1-.061.177-.037.24S.11 47 .232 47h1.787c.146 0 .255-.063.316-.19l.948-1.843h6.47l.973 1.844c.06.126.158.189.316.189h1.751c.11 0 .183-.025.195-.088.024-.063.012-.14-.037-.24l-4.548-8.586c-.23-.43-.462-.72-.705-.859A1.743 1.743 0 006.822 37h-.827zm.304 2.134c.037-.063.085-.101.146-.101h.085c.061 0 .11.038.146.1l2.19 4.18H4.134l2.164-4.18zM12.196 37c-.103 0-.165.038-.186.088-.02.063-.01.14.031.24l3.863 8.586c.195.442.39.733.587.871.195.14.442.215.752.215h.68c.247 0 .463-.076.648-.215.186-.138.381-.429.567-.87l3.82-8.587c.042-.1.052-.177.032-.24-.02-.063-.072-.088-.165-.088H21.3c-.134 0-.217.063-.268.19l-3.358 7.676c-.03.063-.072.101-.123.101h-.062c-.072 0-.114-.038-.144-.1l-3.41-7.678a.326.326 0 00-.103-.139c-.03-.025-.092-.037-.165-.037h-1.472V37zm15.799 0c-.292 0-.547.076-.766.227-.219.152-.45.43-.669.859l-4.511 8.586c-.049.1-.061.177-.037.24s.097.088.22.088h1.787c.146 0 .255-.063.316-.19l.948-1.843h6.47l.973 1.844c.06.126.158.189.316.189h1.751c.11 0 .183-.025.195-.088.024-.063.012-.14-.037-.24l-4.548-8.586c-.23-.43-.462-.72-.705-.859a1.742 1.742 0 00-.876-.227h-.827zm.304 2.134c.037-.063.085-.101.146-.101h.085c.061 0 .11.038.146.1l2.19 4.18h-4.731l2.164-4.18zM37.174 37c-.403 0-.69.101-.886.303-.196.202-.288.594-.288 1.174v8.195c0 .214.104.315.3.315h1.368c.196 0 .288-.1.288-.315v-7.45c0-.1.035-.139.104-.139h.115c.057 0 .115.038.172.101l4.856 6.97c.127.19.242.341.345.455.104.113.207.189.31.252a.807.807 0 00.358.114c.138.012.299.025.494.025h1.116c.403 0 .69-.101.886-.303.196-.202.288-.594.288-1.174v-8.207c0-.215-.092-.316-.288-.316h-1.369c-.196 0-.288.101-.288.316v7.45c0 .1-.034.138-.103.138h-.115a.186.186 0 01-.173-.101l-4.844-6.97c-.127-.176-.23-.328-.322-.429a1.115 1.115 0 00-.3-.253 1.08 1.08 0 00-.367-.126 5.525 5.525 0 00-.518-.025h-1.14zm13.104 0c-.182 0-.278.101-.278.316v1.401c0 .215.096.328.278.328h3.797v7.64c0 .214.085.315.267.315h1.316c.182 0 .267-.101.267-.316v-7.639h3.797c.182 0 .278-.113.278-.328v-1.401c0-.215-.096-.316-.278-.316h-9.444zm15.179 0c-.315 0-.59.076-.826.227-.235.152-.484.43-.72.859l-4.859 8.586c-.052.1-.065.177-.039.24.026.063.105.088.236.088h1.925c.157 0 .275-.063.34-.19l1.022-1.843h6.967l1.048 1.844c.066.126.17.189.34.189h1.886c.118 0 .197-.025.21-.088.026-.063.013-.14-.04-.24l-4.897-8.586c-.25-.43-.498-.72-.76-.859a1.99 1.99 0 00-.943-.227h-.89zm.327 2.134c.04-.063.092-.101.157-.101h.092c.065 0 .118.038.157.1l2.357 4.18h-5.094l2.33-4.18z" fill="#fff"/></svg>